<svg width="58" height="257" viewBox="0 0 58 257" fill="none" xmlns="http://www.w3.org/2000/svg">
<rect width="58" height="257" fill="#282C33"/>
<path fill-rule="evenodd" clip-rule="evenodd" d="M28.5 191L28.5 -4.37114e-08L29.5 0L29.5 191L28.5 191Z" fill="#6FCF97"/>
<path d="M28.0938 209.875C17.579 209.875 9.0625 218.191 9.0625 228.458C9.0625 236.682 14.5102 243.627 22.0751 246.09C23.0267 246.252 23.3835 245.695 23.3835 245.207C23.3835 244.765 23.3597 243.302 23.3597 241.746C18.5781 242.605 17.3411 240.607 16.9605 239.562C16.7464 239.028 15.8186 237.379 15.0098 236.937C14.3437 236.589 13.3921 235.729 14.986 235.706C16.4847 235.683 17.5552 237.053 17.912 237.611C19.6248 240.422 22.3606 239.632 23.4549 239.144C23.6214 237.936 24.121 237.123 24.6681 236.658C20.4337 236.194 16.0089 234.591 16.0089 227.483C16.0089 225.462 16.7464 223.789 17.9596 222.489C17.7693 222.024 17.1032 220.119 18.1499 217.564C18.1499 217.564 19.7438 217.076 23.3835 219.469C24.906 219.051 26.5237 218.842 28.1413 218.842C29.759 218.842 31.3766 219.051 32.8991 219.469C36.5389 217.053 38.1327 217.564 38.1327 217.564C39.1795 220.119 38.5134 222.024 38.323 222.489C39.5363 223.789 40.2738 225.439 40.2738 227.483C40.2738 234.614 35.8252 236.194 31.5907 236.658C32.2806 237.239 32.8754 238.354 32.8754 240.096C32.8754 242.582 32.8516 244.58 32.8516 245.207C32.8516 245.695 33.2084 246.275 34.16 246.09C37.9382 244.844 41.2214 242.473 43.5472 239.311C45.873 236.148 47.1243 232.352 47.125 228.458C47.125 218.191 38.6085 209.875 28.0938 209.875Z" fill="#6FCF97"/>
</svg>
